REM DIRINDEX 1\2\6,1\2\7,1\2\8,1\3\9,1\3\10,1\3\11,1\4\12,1\4\13,1\4\14,1\5\15,1\5\16,1\5\17,1\5\18
REM DIRNAME folder01,folder02,folder03,folder04,folder05,folder06,folder07,folder08,folder09,folder10,folder11,folder12,folder13,folder14,folder15,folder16,folder17,folder18
TITLE ""
FILE "2Q_j_1667-1680.mp3" MP3
  TRACK 01 AUDIO
    TITLE "6:cjc019_1464"
    INDEX 01 00:00:00
  TRACK 02 AUDIO
    TITLE "0:"
    INDEX 01 00:01:32
  TRACK 03 AUDIO
    TITLE "7:cjc019_1465"
    INDEX 01 00:02:18
  TRACK 04 AUDIO
    TITLE "0:"
    INDEX 01 00:03:53
  TRACK 05 AUDIO
    TITLE "8:cjc019_1466"
    INDEX 01 00:04:38
  TRACK 06 AUDIO
    TITLE "0:"
    INDEX 01 00:07:07
  TRACK 07 AUDIO
    TITLE "6:cjc019_1467"
    INDEX 01 00:07:68
  TRACK 08 AUDIO
    TITLE "0:"
    INDEX 01 00:10:02
  TRACK 09 AUDIO
    TITLE "7:cjc019_1468"
    INDEX 01 00:10:59
  TRACK 10 AUDIO
    TITLE "0:"
    INDEX 01 00:13:26
  TRACK 11 AUDIO
    TITLE "8:cjc019_1469"
    INDEX 01 00:14:04
  TRACK 12 AUDIO
    TITLE "0:"
    INDEX 01 00:17:37
  TRACK 13 AUDIO
    TITLE "6:cjc019_1470"
    INDEX 01 00:18:17
  TRACK 14 AUDIO
    TITLE "0:"
    INDEX 01 00:19:48
  TRACK 15 AUDIO
    TITLE "7:cjc019_1471"
    INDEX 01 00:20:32
  TRACK 16 AUDIO
    TITLE "0:"
    INDEX 01 00:21:68
  TRACK 17 AUDIO
    TITLE "8:cjc019_1472"
    INDEX 01 00:22:46
  TRACK 18 AUDIO
    TITLE "0:"
    INDEX 01 00:24:72
  TRACK 19 AUDIO
    TITLE "6:cjc019_1473"
    INDEX 01 00:25:52
  TRACK 20 AUDIO
    TITLE "0:"
    INDEX 01 00:27:61
  TRACK 21 AUDIO
    TITLE "7:cjc019_1474"
    INDEX 01 00:28:43
  TRACK 22 AUDIO
    TITLE "0:"
    INDEX 01 00:33:07
  TRACK 23 AUDIO
    TITLE "8:cjc019_1475"
    INDEX 01 00:33:62
  TRACK 24 AUDIO
    TITLE "0:"
    INDEX 01 00:36:36
  TRACK 25 AUDIO
    TITLE "6:cjc019_1476"
    INDEX 01 00:37:14
  TRACK 26 AUDIO
    TITLE "0:"
    INDEX 01 00:39:19
  TRACK 27 AUDIO
    TITLE "7:cjc019_1477"
    INDEX 01 00:39:72
  TRACK 28 AUDIO
    TITLE "0:"
    INDEX 01 00:42:27
  TRACK 29 AUDIO
    TITLE "8:cjc019_1478"
    INDEX 01 00:43:09
  TRACK 30 AUDIO
    TITLE "0:"
    INDEX 01 00:47:03
  TRACK 31 AUDIO
    TITLE "6:cjc019_1479"
    INDEX 01 00:47:62
  TRACK 32 AUDIO
    TITLE "0:"
    INDEX 01 00:50:19
  TRACK 33 AUDIO
    TITLE "7:cjc019_1480"
    INDEX 01 00:51:01
  TRACK 34 AUDIO
    TITLE "0:"
    INDEX 01 00:52:57
  TRACK 35 AUDIO
    TITLE "8:cjc019_1481"
    INDEX 01 00:53:35
  TRACK 36 AUDIO
    TITLE "0:"
    INDEX 01 00:56:45
  TRACK 37 AUDIO
    TITLE "6:cjc019_1482"
    INDEX 01 00:57:27
  TRACK 38 AUDIO
    TITLE "0:"
    INDEX 01 00:58:66
  TRACK 39 AUDIO
    TITLE "7:cjc019_1483"
    INDEX 01 00:59:43
  TRACK 40 AUDIO
    TITLE "0:"
    INDEX 01 01:01:34
  TRACK 41 AUDIO
    TITLE "8:cjc019_1484"
    INDEX 01 01:02:14
  TRACK 42 AUDIO
    TITLE "0:"
    INDEX 01 01:05:73
  TRACK 43 AUDIO
    TITLE "6:cjc019_1485"
    INDEX 01 01:06:53
  TRACK 44 AUDIO
    TITLE "0:"
    INDEX 01 01:08:09
  TRACK 45 AUDIO
    TITLE "7:cjc019_1486"
    INDEX 01 01:08:66
  TRACK 46 AUDIO
    TITLE "0:"
    INDEX 01 01:10:61
  TRACK 47 AUDIO
    TITLE "8:cjc019_1487"
    INDEX 01 01:11:35
  TRACK 48 AUDIO
    TITLE "0:"
    INDEX 01 01:14:70
  TRACK 49 AUDIO
    TITLE "6:cjc019_1488"
    INDEX 01 01:15:50
  TRACK 50 AUDIO
    TITLE "0:"
    INDEX 01 01:17:35
  TRACK 51 AUDIO
    TITLE "7:cjc019_1489"
    INDEX 01 01:18:13
  TRACK 52 AUDIO
    TITLE "0:"
    INDEX 01 01:20:34
  TRACK 53 AUDIO
    TITLE "8:cjc019_1490"
    INDEX 01 01:21:10
  TRACK 54 AUDIO
    TITLE "0:"
    INDEX 01 01:24:00
  TRACK 55 AUDIO
    TITLE "6:cjc019_1491"
    INDEX 01 01:24:55
  TRACK 56 AUDIO
    TITLE "0:"
    INDEX 01 01:26:32
  TRACK 57 AUDIO
    TITLE "7:cjc019_1492"
    INDEX 01 01:27:12
  TRACK 58 AUDIO
    TITLE "0:"
    INDEX 01 01:29:27
  TRACK 59 AUDIO
    TITLE "8:cjc019_1493"
    INDEX 01 01:30:07
  TRACK 60 AUDIO
    TITLE "0:"
    INDEX 01 01:34:16
  TRACK 61 AUDIO
    TITLE "6:cjc019_1494"
    INDEX 01 01:35:00
  TRACK 62 AUDIO
    TITLE "0:"
    INDEX 01 01:36:66
  TRACK 63 AUDIO
    TITLE "7:cjc019_1495"
    INDEX 01 01:37:48
  TRACK 64 AUDIO
    TITLE "0:"
    INDEX 01 01:39:51
  TRACK 65 AUDIO
    TITLE "8:cjc019_1496"
    INDEX 01 01:40:31
  TRACK 66 AUDIO
    TITLE "0:"
    INDEX 01 01:44:64
  TRACK 67 AUDIO
    TITLE "6:cjc019_1497"
    INDEX 01 01:45:44
  TRACK 68 AUDIO
    TITLE "0:"
    INDEX 01 01:47:13
  TRACK 69 AUDIO
    TITLE "7:cjc019_1498"
    INDEX 01 01:47:70
  TRACK 70 AUDIO
    TITLE "0:"
    INDEX 01 01:51:50
  TRACK 71 AUDIO
    TITLE "8:cjc019_1499"
    INDEX 01 01:52:30
  TRACK 72 AUDIO
    TITLE "0:"
    INDEX 01 01:56:12
  TRACK 73 AUDIO
    TITLE "6:cjc019_1500"
    INDEX 01 01:56:69
  TRACK 74 AUDIO
    TITLE "0:"
    INDEX 01 01:58:60
  TRACK 75 AUDIO
    TITLE "7:cjc019_1501"
    INDEX 01 01:59:42
  TRACK 76 AUDIO
    TITLE "0:"
    INDEX 01 02:01:27
  TRACK 77 AUDIO
    TITLE "8:cjc019_1502"
    INDEX 01 02:02:05
  TRACK 78 AUDIO
    TITLE "0:"
    INDEX 01 02:05:25
  TRACK 79 AUDIO
    TITLE "6:cjc019_1503"
    INDEX 01 02:06:08
  TRACK 80 AUDIO
    TITLE "0:"
    INDEX 01 02:07:24
  TRACK 81 AUDIO
    TITLE "7:cjc019_1504"
    INDEX 01 02:08:17
  TRACK 82 AUDIO
    TITLE "0:"
    INDEX 01 02:10:20
  TRACK 83 AUDIO
    TITLE "8:cjc019_1505"
    INDEX 01 02:11:04
  TRACK 84 AUDIO
    TITLE "0:"
    INDEX 01 02:15:02
